<svg width="44" height="160" viewBox="0 0 44 160" fill="none" xmlns="http://www.w3.org/2000/svg">
<rect x="0.5" y="0.5" width="4" height="19" rx="0.5" fill="#4A5AE0" stroke="#4A5AE0"/>
<rect x="13.5" y="0.5" width="4" height="19" rx="0.5" fill="#4A5AE0" stroke="#4A5AE0"/>
<rect x="26.5" y="0.5" width="4" height="19" rx="0.5" fill="#4A5AE0" stroke="#4A5AE0"/>
<rect x="39.5" y="0.5" width="4" height="19" rx="0.5" fill="#4A5AE0" stroke="#4A5AE0"/>
<rect x="13.5" y="140.5" width="4" height="19" rx="0.5" fill="#4A5AE0" stroke="#4A5AE0"/>
<rect x="26.5" y="140.5" width="4" height="19" rx="0.5" fill="#4A5AE0" stroke="#4A5AE0"/>
<rect x="39.5" y="140.5" width="4" height="19" rx="0.5" fill="#4A5AE0" stroke="#4A5AE0"/>
<rect x="13.5" y="112.5" width="4" height="19" rx="0.5" fill="#4A5AE0" stroke="#4A5AE0"/>
<rect x="26.5" y="112.5" width="4" height="19" rx="0.5" fill="#4A5AE0" stroke="#4A5AE0"/>
<rect x="13.5" y="84.5" width="4" height="19" rx="0.5" fill="#4A5AE0" stroke="#4A5AE0"/>
<rect x="39.5" y="84.5" width="4" height="19" rx="0.5" fill="#4A5AE0" stroke="#4A5AE0"/>
<rect x="26.5" y="56.5" width="4" height="19" rx="0.5" fill="#4A5AE0" stroke="#4A5AE0"/>
<rect x="39.5" y="56.5" width="4" height="19" rx="0.5" fill="#4A5AE0" stroke="#4A5AE0"/>
<rect x="13.5" y="28.5" width="4" height="19" rx="0.5" fill="#4A5AE0" stroke="#4A5AE0"/>
<rect x="26.5" y="28.5" width="4" height="19" rx="0.5" fill="#4A5AE0" stroke="#4A5AE0"/>
</svg>
