<svg width="104" height="152" viewBox="0 0 104 152" fill="none" xmlns="http://www.w3.org/2000/svg">
<circle cx="4" cy="52" r="3.5" fill="#4A5AE0" stroke="#4A5AE0"/>
<circle cx="28" cy="52" r="3.5" fill="#4A5AE0" stroke="#4A5AE0"/>
<circle cx="52" cy="52" r="3.5" fill="#4A5AE0" stroke="#4A5AE0"/>
<circle cx="76" cy="52" r="3.5" fill="#4A5AE0" stroke="#4A5AE0"/>
<circle cx="100" cy="52" r="3.5" fill="#4A5AE0" stroke="#4A5AE0"/>
<circle cx="4" cy="28" r="3.5" fill="#4A5AE0" stroke="#4A5AE0"/>
<circle cx="28" cy="28" r="3.5" fill="#4A5AE0" stroke="#4A5AE0"/>
<circle cx="52" cy="28" r="3.5" fill="#4A5AE0" stroke="#4A5AE0"/>
<circle cx="76" cy="28" r="3.5" fill="#4A5AE0" stroke="#4A5AE0"/>
<circle cx="100" cy="28" r="3.5" fill="#4A5AE0" stroke="#4A5AE0"/>
<circle cx="4" cy="4" r="3.5" fill="#4A5AE0" stroke="#4A5AE0"/>
<circle cx="28" cy="4" r="3.5" fill="#4A5AE0" stroke="#4A5AE0"/>
<circle cx="52" cy="4" r="3.5" fill="#4A5AE0" stroke="#4A5AE0"/>
<circle cx="76" cy="4" r="3.5" fill="#4A5AE0" stroke="#4A5AE0"/>
<circle cx="100" cy="4" r="3.5" fill="#4A5AE0" stroke="#4A5AE0"/>
<circle cx="4" cy="76" r="3.5" fill="#4A5AE0" stroke="#4A5AE0"/>
<circle cx="28" cy="76" r="3.5" fill="#4A5AE0" stroke="#4A5AE0"/>
<circle cx="52" cy="76" r="3.5" fill="#4A5AE0" stroke="#4A5AE0"/>
<circle cx="76" cy="76" r="3.5" fill="#4A5AE0" stroke="#4A5AE0"/>
<circle cx="100" cy="76" r="3.5" fill="#4A5AE0" stroke="#4A5AE0"/>
<circle cx="4" cy="100" r="3.5" fill="#4A5AE0" stroke="#4A5AE0"/>
<circle cx="28" cy="100" r="3.5" fill="#4A5AE0" stroke="#4A5AE0"/>
<circle cx="52" cy="100" r="3.5" fill="#4A5AE0" stroke="#4A5AE0"/>
<circle cx="76" cy="100" r="3.5" fill="#4A5AE0" stroke="#4A5AE0"/>
<circle cx="100" cy="100" r="3.5" fill="#4A5AE0" stroke="#4A5AE0"/>
<circle cx="4" cy="124" r="3.5" fill="#4A5AE0" stroke="#4A5AE0"/>
<circle cx="28" cy="124" r="3.5" fill="#4A5AE0" stroke="#4A5AE0"/>
<circle cx="52" cy="124" r="3.5" fill="#4A5AE0" stroke="#4A5AE0"/>
<circle cx="76" cy="124" r="3.5" fill="#4A5AE0" stroke="#4A5AE0"/>
<circle cx="100" cy="124" r="3.5" fill="#4A5AE0" stroke="#4A5AE0"/>
<circle cx="4" cy="148" r="3.5" fill="#4A5AE0" stroke="#4A5AE0"/>
<circle cx="28" cy="148" r="3.5" fill="#4A5AE0" stroke="#4A5AE0"/>
<circle cx="52" cy="148" r="3.5" fill="#4A5AE0" stroke="#4A5AE0"/>
<circle cx="76" cy="148" r="3.5" fill="#4A5AE0" stroke="#4A5AE0"/>
<circle cx="100" cy="148" r="3.5" fill="#4A5AE0" stroke="#4A5AE0"/>
</svg>
