<svg width="120" height="120" viewBox="0 0 120 120" fill="none" xmlns="http://www.w3.org/2000/svg">
<mask id="path-1-inside-1_1_282" fill="white">
<path d="M60 112C60 114.752 60 116.129 60.6393 117.268C61.1559 118.189 62.1738 119.08 63.1551 119.469C64.3696 119.951 65.5719 119.79 67.9765 119.467C77.0144 118.255 85.694 114.993 93.3342 109.888C103.201 103.295 110.892 93.9246 115.433 82.961C119.974 71.9974 121.162 59.9334 118.847 48.2946C116.532 36.6557 110.818 25.9647 102.426 17.5736C94.0352 9.18243 83.3443 3.46799 71.7054 1.15288C60.0665 -1.16223 48.0025 0.0259705 37.039 4.56724C26.0754 9.1085 16.7047 16.7989 10.1118 26.6658C5.00676 34.3061 1.7448 42.9856 0.532516 52.0235C0.209984 54.4281 0.0487213 55.6304 0.530853 56.8449C0.920448 57.8263 1.81087 58.8441 2.73176 59.3607C3.87137 60 5.24758 60 8 60L52 60C54.8003 60 56.2004 60 57.27 60.545C58.2108 61.0243 58.9757 61.7892 59.455 62.73C60 63.7996 60 65.1997 60 68L60 112Z"/>
</mask>
<path d="M60 112C60 114.752 60 116.129 60.6393 117.268C61.1559 118.189 62.1738 119.08 63.1551 119.469C64.3696 119.951 65.5719 119.79 67.9765 119.467C77.0144 118.255 85.694 114.993 93.3342 109.888C103.201 103.295 110.892 93.9246 115.433 82.961C119.974 71.9974 121.162 59.9334 118.847 48.2946C116.532 36.6557 110.818 25.9647 102.426 17.5736C94.0352 9.18243 83.3443 3.46799 71.7054 1.15288C60.0665 -1.16223 48.0025 0.0259705 37.039 4.56724C26.0754 9.1085 16.7047 16.7989 10.1118 26.6658C5.00676 34.3061 1.7448 42.9856 0.532516 52.0235C0.209984 54.4281 0.0487213 55.6304 0.530853 56.8449C0.920448 57.8263 1.81087 58.8441 2.73176 59.3607C3.87137 60 5.24758 60 8 60L52 60C54.8003 60 56.2004 60 57.27 60.545C58.2108 61.0243 58.9757 61.7892 59.455 62.73C60 63.7996 60 65.1997 60 68L60 112Z" fill="#4A5AE0" stroke="#4A5AE0" stroke-width="2" mask="url(#path-1-inside-1_1_282)"/>
</svg>
