<svg width="50" height="50" viewBox="0 0 50 50" fill="none" xmlns="http://www.w3.org/2000/svg">
<path d="M39.4737 30.2632C39.4737 35.35 35.35 39.4737 30.2632 39.4737C25.1763 39.4737 21.0526 35.35 21.0526 30.2632C21.0526 25.1763 25.1763 21.0526 30.2632 21.0526C35.35 21.0526 39.4737 25.1763 39.4737 30.2632Z" fill="#1A2DD8"/>
<path d="M0 21.0526H9.21053C14.2974 21.0526 18.4211 25.1763 18.4211 30.2632V50H9.21053C4.12369 50 0 45.8763 0 40.7895V21.0526Z" fill="#1A2DD8"/>
<path d="M0 18.4211V9.21053C-2.22353e-07 4.12369 4.12369 2.22353e-07 9.21053 0L50 2.4611e-06V9.21053C50 14.2974 45.8763 18.4211 40.7895 18.4211H0Z" fill="#1A2DD8"/>
</svg>
